<svg xmlns="http://www.w3.org/2000/svg" viewBox="0 -0.5 31 31" shape-rendering="crispEdges">
<metadata>Made with Pixels to Svg https://codepen.io/shshaw/pen/XbxvNj</metadata>
<path stroke="#ffffff" d="M2 1h3M7 1h1M11 1h1M13 1h1M17 1h1M19 1h3M26 1h3M1 2h1M5 2h1M7 2h2M10 2h2M14 2h1M16 2h1M19 2h1M22 2h1M25 2h1M29 2h1M1 3h5M7 3h1M9 3h1M11 3h1M15 3h1M19 3h4M25 3h1M29 3h1M1 4h1M5 4h1M7 4h1M11 4h1M15 4h1M19 4h1M23 4h1M25 4h1M29 4h1M1 5h1M5 5h1M7 5h1M11 5h1M15 5h1M19 5h4M26 5h3M1 9h1M5 9h1M7 9h5M13 9h5M19 9h4M26 9h4M1 10h2M5 10h1M7 10h1M13 10h1M19 10h1M23 10h1M25 10h1M1 11h1M3 11h1M5 11h1M7 11h4M13 11h4M19 11h1M23 11h1M25 11h4M1 12h1M4 12h2M7 12h1M13 12h1M19 12h1M23 12h1M29 12h1M1 13h1M5 13h1M7 13h5M13 13h5M19 13h4M25 13h4M2 17h3M1 18h1M5 18h1M1 19h5M1 20h1M5 20h1M1 21h1M5 21h1M7 25h1M14 25h3M20 25h4M26 25h3M7 26h1M13 26h1M17 26h1M19 26h1M25 26h1M29 26h1M7 27h1M13 27h1M17 27h1M19 27h1M21 27h3M25 27h1M29 27h1M7 28h1M13 28h1M17 28h1M19 28h1M23 28h1M25 28h1M29 28h1M7 29h5M14 29h3M20 29h4M26 29h3" />
</svg>